<svg width="16" height="15" viewBox="0 0 16 15" fill="none" xmlns="http://www.w3.org/2000/svg">
<path d="M15.2 4.92812C15.6418 4.92812 16 4.6173 16 4.23388V1.45693C15.9987 1.36621 15.977 1.27659 15.936 1.19312C15.8548 1.02349 15.6995 0.888682 15.504 0.818234C15.4078 0.782661 15.3045 0.763792 15.2 0.762695H12C11.5582 0.762695 11.2 1.07352 11.2 1.45693C11.2 1.84035 11.5582 2.15117 12 2.15117H13.272L8 6.72619L2.728 2.15117H4C4.44183 2.15117 4.8 1.84035 4.8 1.45693C4.8 1.07352 4.44183 0.762695 4 0.762695H0.8C0.695458 0.763792 0.592178 0.782661 0.496 0.818234C0.300521 0.888682 0.14518 1.02349 0.064 1.19312C0.0230072 1.27659 0.00126399 1.36621 0 1.45693V4.23388C0 4.6173 0.358172 4.92812 0.8 4.92812C1.24183 4.92812 1.6 4.6173 1.6 4.23388V3.13004L6.872 7.70507L1.6 12.2801V11.1763C1.6 10.7928 1.24183 10.482 0.8 10.482C0.358172 10.482 0 10.7928 0 11.1763V13.9532C0.00126399 14.0439 0.0230072 14.1336 0.064 14.217C0.14518 14.3867 0.300521 14.5215 0.496 14.5919C0.592178 14.6275 0.695458 14.6463 0.8 14.6474H4C4.44183 14.6474 4.8 14.3366 4.8 13.9532C4.8 13.5698 4.44183 13.259 4 13.259H2.728L8 8.68394L13.272 13.259H12C11.5582 13.259 11.2 13.5698 11.2 13.9532C11.2 14.3366 11.5582 14.6474 12 14.6474H15.2C15.3045 14.6463 15.4078 14.6275 15.504 14.5919C15.6995 14.5215 15.8548 14.3867 15.936 14.217C15.977 14.1336 15.9987 14.0439 16 13.9532V11.1763C16 10.7928 15.6418 10.482 15.2 10.482C14.7582 10.482 14.4 10.7928 14.4 11.1763V12.2801L9.128 7.70507L14.4 3.13004V4.23388C14.4 4.6173 14.7582 4.92812 15.2 4.92812Z" fill="#7C8187"/>
</svg>
